<svg xmlns="http://www.w3.org/2000/svg" viewBox="0 0 450 450">
  <defs>
    <linearGradient id="a" x1="0%" y1="0%" x2="100%" y2="100%">
      <stop offset="0%" stop-color="#af48d5"/>
      <stop offset="50%" stop-color="#9d9ae1"/>
      <stop offset="100%" stop-color="#d3c4a6"/>
    </linearGradient>
    <linearGradient id="b" x1="0%" y1="0%" x2="100%" y2="100%">
      <stop offset="0%" stop-color="#241b21"/>
      <stop offset="30%" stop-color="#0f0e08"/>
      <stop offset="60%" stop-color="#010404"/>
      <stop offset="100%"/>
    </linearGradient>
    <linearGradient id="c" gradientTransform="rotate(70)">
      <stop offset="10%" stop-color="#fff" />
      <stop offset="90%" stop-color="#000" />
    </linearGradient>
    <linearGradient
      id="gold-highlight"
      gradientTransform="rotate(60)" y1="0%" y2="30%"
    >
      <stop offset="0%" stop-color="transparent" />
      <stop offset="50%" stop-color="#a07d00" />
      <stop offset="75%" stop-color="#ffc700" />
    </linearGradient>
  </defs>
  <path stroke="url(#a)" fill="url(#b)" d="M34.3 201.945h53.9V160H115a.9.877 0 0 0 0-122.842H34.3z" transform="matrix(2.6 0 0 2.6 -39 -83.2)"/>
  <path d="M127.377 189.314a4.63 4.63 0 0 0 1.281 2.987l39.149 39.263a13.06 13.06 0 0 1-.149 17.833 12.714 12.714 0 0 1-17.963.276l-51.168-51.311a13.06 13.06 0 0 1 0-18.096l69.056-69.233a12.805 12.805 0 0 1 18.099 0 13.06 13.06 0 0 1 0 18.099l-57.11 57.106a4.63 4.63 0 0 0-1.195 3.076zm88.657 94.45 53.921-188.045a14.822 14.822 0 0 0-28.496-8.17l-53.918 188.046a14.82 14.82 0 0 0 28.493 8.169Zm122.665-100.383a4.63 4.63 0 0 0-1.281-2.988l-39.146-39.262a13.06 13.06 0 0 1 .148-17.831 12.714 12.714 0 0 1 17.964-.276l51.168 51.309a13.06 13.06 0 0 1 0 18.096l-69.056 69.232a12.805 12.805 0 0 1-18.099 0 13.06 13.06 0 0 1 0-18.096l57.109-57.109a4.63 4.63 0 0 0 1.196-3.075z" stroke-width="2.964" stroke="url(#gold-highlight)" fill="url(#c)"/>
</svg>
